<?xml version="1.0" encoding="iso-8859-1"?>
<!-- Generator: Adobe Illustrator 19.0.0, SVG Export Plug-In . SVG Version: 6.00 Build 0)  -->
<svg version="1.1" id="Capa_1" xmlns="http://www.w3.org/2000/svg" xmlns:xlink="http://www.w3.org/1999/xlink" x="0px" y="0px"
	 viewBox="0 0 511.172 511.172" style="enable-background:new 0 0 511.172 511.172;" xml:space="preserve">
<path style="fill:#5D9CEC;" d="M137.797,99.844c30.835,0,55.913,32.27,55.913,71.888s-25.078,71.889-55.913,71.889
	s-55.913-32.271-55.913-71.889C81.884,132.114,106.962,99.844,137.797,99.844z"/>
<g style="opacity:0.3;">
	<path style="fill:#FFFFFF;" d="M127.165,242.279l36.037-134.502c-7.636-5.031-16.256-7.933-25.405-7.933
		c-1.903,0-3.783,0.125-5.64,0.366L99.115,223.519C106.735,232.926,116.393,239.595,127.165,242.279z"/>
</g>
<g style="opacity:0.3;">
	<path style="fill:#FFFFFF;" d="M170.044,113.113l-34.915,130.336c0.89,0.055,1.763,0.172,2.668,0.172
		c1.903,0,3.783-0.125,5.64-0.367l33.042-123.3C174.474,117.473,172.321,115.188,170.044,113.113z"/>
</g>
<path style="fill:#5D9CEC;" d="M329.494,99.844c30.835,0,55.913,32.27,55.913,71.888s-25.078,71.889-55.913,71.889
	c-30.834,0-55.913-32.271-55.913-71.889S298.66,99.844,329.494,99.844z"/>
<g style="opacity:0.3;">
	<path style="fill:#FFFFFF;" d="M318.862,242.279L354.9,107.777c-7.637-5.031-16.256-7.933-25.406-7.933
		c-1.903,0-3.783,0.125-5.64,0.366l-33.042,123.309C298.434,232.926,308.09,239.595,318.862,242.279z"/>
</g>
<g style="opacity:0.3;">
	<path style="fill:#FFFFFF;" d="M361.741,113.113l-34.915,130.336c0.89,0.055,1.764,0.172,2.668,0.172
		c1.903,0,3.783-0.125,5.64-0.367l33.042-123.3C366.172,117.473,364.019,115.188,361.741,113.113z"/>
</g>
<g>
	<path style="fill:#656D78;" d="M233.648,27.956c-10.943,0-21.646,0.959-31.95,2.878V3.994h63.896v26.841
		C255.294,28.916,244.592,27.956,233.648,27.956z"/>
	<path style="fill:#656D78;" d="M417.357,139.782v63.9h-20.85h-0.078c3.197-9.906,4.953-20.687,4.953-31.95
		s-1.756-22.043-4.953-31.95h0.078L417.357,139.782L417.357,139.782z"/>
	<path style="fill:#656D78;" d="M65.909,171.732c0,11.264,1.755,22.044,4.953,31.95h-0.078h-20.85v-63.9h20.851h0.078
		C67.664,149.689,65.909,160.468,65.909,171.732z"/>
</g>
<path style="fill:#AAB2BD;" d="M340.547,382.545c-18.954,49.205-28.283,91.811-21.786,98.152l1.95,0.748
	c8.229,3.111,30.913-36.029,50.641-87.551c18.954-49.205,28.283-91.803,21.786-98.152l-1.95-0.748
	C382.958,291.881,360.274,331.024,340.547,382.545z"/>
<path id="SVGCleanerId_0" style="fill:#A0D468;" d="M361.203,351.772l0.241-0.717c-15.179-40.18-5.108-81.396-2.238-90.664
	l-1.755-7.667c-8.55,4.4-18.051,6.873-27.957,6.873c-39.695,0-71.884-39.298-71.884-87.864c0-48.564,32.188-87.863,71.884-87.863
	c9.906,0,19.407,2.473,27.957,6.872l2.637-6.872c-23.004-26.755-56.312-46.084-94.494-53.034c-10.3-1.919-21.002-2.878-31.946-2.878
	c-10.943,0-21.646,0.959-31.95,2.878c-38.183,6.95-71.49,26.279-94.493,53.034l2.636,6.872c8.549-4.399,18.05-6.872,27.957-6.872
	c39.696,0,71.888,39.299,71.888,87.863c0,48.565-32.192,87.864-71.888,87.864c-9.906,0-19.407-2.473-27.957-6.873l-1.755,7.667
	c2.871,9.268,12.941,50.484-2.238,90.664l0.242,0.717l-7.028,2.715l25.718,67.178l27.637-10.625l0.32-0.078
	c-1.919-6.709-2.956-13.338-2.956-19.57v-15.977c0-35.062,31.95-83.869,83.869-83.869c51.915,0,83.865,48.807,83.865,83.869v15.977
	c0,6.232-1.037,12.861-2.956,19.57l0.32,0.078l27.637,10.625l25.717-67.178L361.203,351.772z"/>
<g>
	<path id="SVGCleanerId_0_1_" style="fill:#A0D468;" d="M361.203,351.772l0.241-0.717c-15.179-40.18-5.108-81.396-2.238-90.664
		l-1.755-7.667c-8.55,4.4-18.051,6.873-27.957,6.873c-39.695,0-71.884-39.298-71.884-87.864c0-48.564,32.188-87.863,71.884-87.863
		c9.906,0,19.407,2.473,27.957,6.872l2.637-6.872c-23.004-26.755-56.312-46.084-94.494-53.034
		c-10.3-1.919-21.002-2.878-31.946-2.878c-10.943,0-21.646,0.959-31.95,2.878c-38.183,6.95-71.49,26.279-94.493,53.034l2.636,6.872
		c8.549-4.399,18.05-6.872,27.957-6.872c39.696,0,71.888,39.299,71.888,87.863c0,48.565-32.192,87.864-71.888,87.864
		c-9.906,0-19.407-2.473-27.957-6.873l-1.755,7.667c2.871,9.268,12.941,50.484-2.238,90.664l0.242,0.717l-7.028,2.715l25.718,67.178
		l27.637-10.625l0.32-0.078c-1.919-6.709-2.956-13.338-2.956-19.57v-15.977c0-35.062,31.95-83.869,83.869-83.869
		c51.915,0,83.865,48.807,83.865,83.869v15.977c0,6.232-1.037,12.861-2.956,19.57l0.32,0.078l27.637,10.625l25.717-67.178
		L361.203,351.772z"/>
</g>
<g style="opacity:0.2;">
	<path d="M233.648,27.956c10.944,0,21.646,0.959,31.946,2.878v-7.988c-10.3-1.918-21.002-2.878-31.946-2.878
		c-10.943,0-21.646,0.96-31.95,2.878v7.988C212.002,28.916,222.704,27.956,233.648,27.956z"/>
</g>
<g style="opacity:0.5;">
	<path style="fill:#FFFFFF;" d="M116.673,87.73l-1.482-3.861c23.003-26.755,56.311-46.084,94.493-53.034
		c9.033-1.685,18.417-2.496,27.957-2.699c-1.342-0.031-2.645-0.179-3.994-0.179c-10.943,0-21.646,0.959-31.95,2.878
		c-38.183,6.95-71.49,26.279-94.493,53.034l2.636,6.872C112.056,89.602,114.341,88.604,116.673,87.73z"/>
	<path style="fill:#FFFFFF;" d="M107.048,354.486l7.028-2.715l-0.242-0.717c15.18-40.18,5.109-81.396,2.239-90.664l1.038-4.524
		c-2.48-0.905-4.922-1.935-7.27-3.144l-1.755,7.667c2.871,9.268,12.941,50.484-2.238,90.664l0.242,0.717l-7.028,2.715l25.718,67.178
		l6.966-2.676L107.048,354.486z"/>
</g>
<g style="opacity:0.2;">
	<path d="M350.703,87.73l1.482-3.861c-23.003-26.755-56.311-46.084-94.489-53.034c-9.033-1.685-18.417-2.496-27.957-2.699
		c1.342-0.031,2.645-0.179,3.994-0.179c10.944,0,21.646,0.959,31.946,2.878c38.183,6.95,71.49,26.279,94.493,53.034l-2.636,6.872
		C355.321,89.602,353.036,88.604,350.703,87.73z"/>
	<path d="M360.329,354.486l-7.028-2.715l0.242-0.717c-15.18-40.18-5.109-81.396-2.238-90.664l-1.038-4.524
		c2.48-0.905,4.922-1.935,7.271-3.144l1.755,7.667c-2.871,9.268-12.941,50.484,2.238,90.664l-0.241,0.717l7.027,2.715
		l-25.718,67.178l-6.966-2.676L360.329,354.486z"/>
</g>
<path style="fill:#AAB2BD;" d="M149.778,375.414c0-35.062,31.95-83.869,83.869-83.869c51.915,0,83.865,48.807,83.865,83.869v15.977
	c0-35.062-31.95-83.869-83.865-83.869c-51.919,0-83.869,48.807-83.869,83.869V375.414z"/>
<path style="fill:#656D78;" d="M233.648,371.422c12.379,0,19.969,11.66,19.969,19.969c0,8.307-7.59,19.969-19.969,19.969
	s-19.969-11.662-19.969-19.969C213.679,383.082,221.269,371.422,233.648,371.422z"/>
<g style="opacity:0.2;">
	<path style="fill:#FFFFFF;" d="M221.666,391.391c0-7.363,5.991-17.332,15.976-19.502c-1.271-0.281-2.59-0.467-3.994-0.467
		c-12.379,0-19.969,11.66-19.969,19.969c0,8.307,7.59,19.969,19.969,19.969c1.404,0,2.723-0.188,3.994-0.469
		C227.657,408.723,221.666,398.754,221.666,391.391z"/>
</g>
<g style="opacity:0.5;">
	<path style="fill:#FFFFFF;" d="M160.722,394.986c-1.919-6.709-2.956-13.34-2.956-19.572c0-34.141,30.351-81.178,79.876-83.635
		c-1.334-0.062-2.629-0.234-3.994-0.234c-51.919,0-83.869,48.807-83.869,83.869c0,6.232,1.037,12.863,2.956,19.572
		c8.947,31.232,38.183,64.299,80.913,64.299c1.357,0,2.66-0.125,3.994-0.195C197.103,457.092,169.388,425.229,160.722,394.986z"/>
</g>
<g style="opacity:0.2;">
	<path d="M306.569,355.844c1.919,6.709,2.956,13.338,2.956,19.57c0,34.143-30.352,81.18-79.871,83.637
		c1.333,0.062,2.628,0.234,3.993,0.234c51.915,0,83.865-48.809,83.865-83.871c0-6.232-1.037-12.861-2.956-19.57
		c-8.947-31.232-38.183-64.299-80.909-64.299c-1.357,0-2.66,0.125-3.993,0.195C270.189,293.738,297.902,325.602,306.569,355.844z"/>
</g>
<g style="opacity:0.2;">
	<path d="M245.426,391.391c0,7.363-5.99,17.332-15.975,19.5c1.271,0.281,2.59,0.469,3.993,0.469c12.38,0,19.97-11.662,19.97-19.969
		c0-8.309-7.59-19.969-19.97-19.969c-1.403,0-2.722,0.186-3.993,0.467C239.436,374.059,245.426,384.027,245.426,391.391z"/>
</g>
<path style="fill:#AAB2BD;" d="M253.616,391.391c0-8.309-7.59-19.969-19.969-19.969s-19.969,11.66-19.969,19.969
	c0,8.307,7.59,19.969,19.969,19.969S253.616,399.697,253.616,391.391z M285.563,391.391c0,21.723-19.727,51.918-51.915,51.918
	c-32.192,0-51.919-30.195-51.919-51.918c0-21.725,19.727-51.92,51.919-51.92C265.836,339.471,285.563,369.666,285.563,391.391z"/>
<g style="opacity:0.5;">
	<path style="fill:#FFFFFF;" d="M189.716,391.391c0-20.805,18.12-49.299,47.926-51.686c-1.318-0.109-2.629-0.234-3.994-0.234
		c-32.192,0-51.919,30.195-51.919,51.92c0,21.723,19.727,51.918,51.919,51.918c1.365,0,2.676-0.125,3.994-0.232
		C207.836,440.688,189.716,412.193,189.716,391.391z"/>
</g>
<g style="opacity:0.2;">
	<path d="M277.575,391.391c0-20.805-18.116-49.299-47.921-51.686c1.317-0.109,2.628-0.234,3.993-0.234
		c32.188,0,51.915,30.195,51.915,51.92c0,21.723-19.727,51.918-51.915,51.918c-1.365,0-2.676-0.125-3.993-0.232
		C259.459,440.688,277.575,412.193,277.575,391.391z"/>
</g>
<path style="fill:#CCD1D9;" d="M314.557,410.883c-8.947,31.225-38.097,64.377-80.909,64.377c-42.73,0-71.966-33.066-80.913-64.299
	c-1.919-6.709-2.956-13.338-2.956-19.57c0-35.062,31.95-83.869,83.869-83.869c51.915,0,83.865,48.807,83.865,83.869
	C317.513,397.623,316.554,404.168,314.557,410.883z M285.563,391.391c0-21.725-19.727-51.92-51.915-51.92
	c-32.192,0-51.919,30.195-51.919,51.92c0,21.723,19.727,51.918,51.919,51.918C265.836,443.309,285.563,413.113,285.563,391.391z"/>
<g style="opacity:0.7;">
	<path style="fill:#FFFFFF;" d="M160.722,410.961c-1.919-6.709-2.956-13.338-2.956-19.57c0-34.143,30.351-81.18,79.876-83.637
		c-1.334-0.062-2.629-0.232-3.994-0.232c-51.919,0-83.869,48.807-83.869,83.869c0,6.232,1.037,12.861,2.956,19.57
		c8.947,31.232,38.183,64.299,80.913,64.299c1.357,0,2.66-0.125,3.994-0.195C197.103,473.068,169.388,441.203,160.722,410.961z"/>
</g>
<g style="opacity:0.2;">
	<path d="M306.569,371.818c1.919,6.709,2.956,13.34,2.956,19.572c0,34.141-30.352,81.178-79.871,83.635
		c1.333,0.062,2.628,0.234,3.993,0.234c51.915,0,83.865-48.807,83.865-83.869c0-6.232-1.037-12.863-2.956-19.572
		c-8.947-31.232-38.183-64.297-80.909-64.297c-1.357,0-2.66,0.123-3.993,0.193C270.189,309.713,297.902,341.576,306.569,371.818z"/>
</g>
<path style="fill:#656D78;" d="M458.255,320.617c8.308,3.121-1.038,47.449-20.851,98.885c-19.727,51.521-42.41,90.664-50.64,87.553
	l-67.099-25.805c8.229,3.199,30.912-35.943,50.647-87.465c19.728-51.436,29.072-95.773,20.843-98.963L458.255,320.617z"/>
<g style="opacity:0.2;">
	<path d="M458.255,320.617l-15.476-5.951c8.307,3.119-1.537,53.4-21.35,104.836c-15.578,40.688-32.973,73.559-43.667,84.088
		l9.002,3.465c8.229,3.111,30.913-36.031,50.64-87.553C457.217,368.066,466.563,323.738,458.255,320.617z"/>
</g>
<g style="opacity:0.2;">
	<path style="fill:#FFFFFF;" d="M331.943,485.969c8.229,3.199,34.61-40.662,54.346-92.184
		c15.577-40.617,24.641-76.717,23.729-91.709l-18.861-7.254c8.229,3.189-1.115,47.527-20.843,98.963
		c-19.735,51.521-42.418,90.664-50.647,87.465L331.943,485.969z"/>
</g>
<path style="fill:#CCD1D9;" d="M193.71,171.732c0-39.618-25.078-71.888-55.913-71.888s-55.913,32.27-55.913,71.888
	s25.078,71.889,55.913,71.889S193.71,211.35,193.71,171.732z M209.685,171.732c0,48.565-32.192,87.864-71.888,87.864
	c-9.906,0-19.407-2.473-27.957-6.873c-17.816-9.259-31.951-26.997-38.979-49.041c-3.198-9.906-4.953-20.687-4.953-31.95
	s1.755-22.043,4.953-31.95C77.889,117.738,92.024,100,109.84,90.741c8.549-4.399,18.05-6.872,27.957-6.872
	C177.493,83.869,209.685,123.168,209.685,171.732z"/>
<g style="opacity:0.7;">
	<path style="fill:#FFFFFF;" d="M117.828,252.723c-17.816-9.259-31.95-26.997-38.979-49.041c-3.198-9.906-4.953-20.687-4.953-31.95
		s1.755-22.043,4.953-31.95c7.028-22.044,21.162-39.782,38.979-49.041c7.387-3.798,15.515-6.053,23.97-6.622
		c-1.334-0.094-2.652-0.25-4.001-0.25c-9.906,0-19.407,2.473-27.957,6.872C92.024,100,77.889,117.738,70.861,139.782
		c-3.198,9.907-4.953,20.687-4.953,31.95s1.755,22.044,4.953,31.95c7.028,22.044,21.163,39.782,38.979,49.041
		c8.549,4.4,18.05,6.873,27.957,6.873c1.35,0,2.667-0.156,4.001-0.25C133.343,258.775,125.215,256.522,117.828,252.723z"/>
</g>
<g style="opacity:0.2;">
	<path d="M70.862,203.682c-3.198-9.906-4.953-20.687-4.953-31.95s1.755-22.043,4.953-31.95h-0.078h-7.91
		c-3.198,9.907-4.953,20.687-4.953,31.95s1.755,22.044,4.953,31.95h7.91H70.862z"/>
</g>
<g style="opacity:0.2;">
	<path d="M157.766,252.723c17.816-9.259,31.95-26.997,38.979-49.041c3.198-9.906,4.953-20.687,4.953-31.95
		s-1.755-22.043-4.953-31.95c-7.028-22.044-21.163-39.782-38.979-49.041c-7.387-3.798-15.515-6.053-23.971-6.622
		c1.334-0.094,2.652-0.25,4.002-0.25c9.906,0,19.407,2.473,27.956,6.872c17.816,9.259,31.95,26.997,38.979,49.041
		c3.198,9.907,4.953,20.687,4.953,31.95s-1.755,22.044-4.953,31.95c-7.028,22.044-21.162,39.782-38.979,49.041
		c-8.549,4.4-18.05,6.873-27.956,6.873c-1.35,0-2.668-0.156-4.002-0.25C142.251,258.775,150.379,256.522,157.766,252.723z"/>
</g>
<path style="fill:#CCD1D9;" d="M385.407,171.732c0-39.618-25.078-71.888-55.913-71.888c-30.834,0-55.913,32.27-55.913,71.888
	s25.079,71.889,55.913,71.889C360.329,243.621,385.407,211.35,385.407,171.732z M396.43,139.782
	c3.197,9.907,4.953,20.687,4.953,31.95s-1.756,22.044-4.953,31.95c-9.587,30.109-32.349,52.075-59.588,55.437
	c-2.395,0.32-4.875,0.477-7.348,0.477c-39.695,0-71.884-39.298-71.884-87.864c0-48.564,32.188-87.863,71.884-87.863
	C360.01,83.869,386.047,107.036,396.43,139.782z"/>
<g style="opacity:0.7;">
	<path style="fill:#FFFFFF;" d="M309.525,252.723c-17.816-9.259-31.95-26.997-38.979-49.041c-3.198-9.906-4.953-20.687-4.953-31.95
		s1.755-22.043,4.953-31.95c7.028-22.044,21.162-39.782,38.979-49.041c7.387-3.798,15.515-6.053,23.971-6.622
		c-1.334-0.094-2.652-0.25-4.002-0.25c-9.906,0-19.407,2.473-27.956,6.872c-17.816,9.259-31.95,26.997-38.975,49.041
		c-3.198,9.907-4.953,20.687-4.953,31.95s1.755,22.044,4.953,31.95c7.024,22.044,21.158,39.782,38.975,49.041
		c8.549,4.4,18.05,6.873,27.956,6.873c1.35,0,2.668-0.156,4.002-0.25C325.04,258.775,316.912,256.522,309.525,252.723z"/>
</g>
<g style="opacity:0.2;">
	<path d="M349.463,252.723c17.816-9.259,31.951-26.997,38.979-49.041c3.198-9.906,4.953-20.687,4.953-31.95
		s-1.755-22.043-4.953-31.95c-7.027-22.044-21.162-39.782-38.979-49.041c-7.387-3.798-15.515-6.053-23.971-6.622
		c1.334-0.094,2.652-0.25,4.002-0.25c9.906,0,19.407,2.473,27.957,6.872c17.815,9.259,31.95,26.997,38.979,49.041
		c3.197,9.907,4.953,20.687,4.953,31.95s-1.756,22.044-4.953,31.95c-7.028,22.044-21.163,39.782-38.979,49.041
		c-8.55,4.4-18.051,6.873-27.957,6.873c-1.35,0-2.668-0.156-4.002-0.25C333.948,258.775,342.076,256.522,349.463,252.723z"/>
</g>
<g style="opacity:0.2;">
	<path d="M404.417,139.782h-7.909h-0.078c3.197,9.907,4.953,20.687,4.953,31.95s-1.756,22.044-4.953,31.95h0.078h7.909
		c3.198-9.906,4.953-20.687,4.953-31.95S407.615,149.689,404.417,139.782z"/>
</g>
<g>
	<path style="fill:#3A3847;" d="M107.204,87.863c-0.921,0-1.849-0.32-2.605-0.967c-1.669-1.435-1.864-3.955-0.421-5.632
		c24.15-28.089,58.526-47.387,96.802-54.361c20.968-3.9,44.354-3.908,65.348,0.008c29.267,5.382,56.303,17.863,78.183,36.077
		c6.764,5.617,13.027,11.74,18.604,18.19c1.436,1.669,1.256,4.197-0.413,5.64c-1.661,1.419-4.181,1.263-5.64-0.414
		c-5.28-6.123-11.225-11.942-17.66-17.277c-20.826-17.34-46.599-29.22-74.532-34.361c-20.043-3.744-42.406-3.736-62.438-0.007
		c-36.506,6.646-69.236,25.008-92.2,51.716C109.442,87.395,108.327,87.863,107.204,87.863z"/>
	<path style="fill:#3A3847;" d="M361.444,355.049c-1.614,0-3.128-0.984-3.736-2.582c-14.571-38.535-6.35-77.738-3.486-88.838
		c0.507-1.857,0.92-3.332,1.248-4.408c0.647-2.105,2.847-3.299,4.992-2.652c2.106,0.648,3.292,2.878,2.651,4.992
		c-0.312,1.014-0.709,2.41-1.17,4.111c-2.706,10.477-10.507,47.629,3.237,83.971c0.78,2.059-0.257,4.369-2.324,5.148
		C362.389,354.963,361.912,355.049,361.444,355.049z"/>
	<path style="fill:#3A3847;" d="M233.648,415.354c-14.844,0-23.963-13.955-23.963-23.963s9.119-23.963,23.963-23.963
		s23.963,13.955,23.963,23.963S248.491,415.354,233.648,415.354z M233.648,375.414c-9.75,0-15.975,9.463-15.975,15.977
		s6.225,15.975,15.975,15.975c9.751,0,15.976-9.461,15.976-15.975S243.398,375.414,233.648,375.414z"/>
	<path style="fill:#3A3847;" d="M233.648,479.254c-45.008,0-75.484-34.83-84.751-67.193c-2.067-7.215-3.112-14.172-3.112-20.67
		c0-36.686,33.425-87.863,87.863-87.863c54.435,0,87.859,51.178,87.859,87.863c0,6.723-1.053,13.666-3.12,20.631
		C309.112,444.385,278.628,479.254,233.648,479.254z M233.648,311.514c-49.485,0-79.875,46.521-79.875,79.877
		c0,5.756,0.944,11.973,2.8,18.471c8.471,29.57,36.209,61.404,77.075,61.404c40.847,0,68.585-31.873,77.071-61.482
		c1.864-6.264,2.801-12.441,2.801-18.393C313.52,358.035,283.129,311.514,233.648,311.514z"/>
	<path style="fill:#3A3847;" d="M317.513,379.408c-2.207,0-3.993-1.785-3.993-3.994c0-33.354-30.391-79.875-79.872-79.875
		c-49.485,0-79.875,46.521-79.875,79.875c0,2.209-1.787,3.994-3.994,3.994c-2.208,0-3.994-1.785-3.994-3.994
		c0-36.684,33.425-87.863,87.863-87.863c54.435,0,87.859,51.18,87.859,87.863C321.507,377.623,319.721,379.408,317.513,379.408z"/>
	<path style="fill:#3A3847;" d="M233.648,447.303c-34.642,0-55.913-32.566-55.913-55.912c0-23.348,21.271-55.914,55.913-55.914
		c34.638,0,55.909,32.566,55.909,55.914C289.557,414.736,268.285,447.303,233.648,447.303z M233.648,343.465
		c-29.696,0-47.925,27.91-47.925,47.926s18.229,47.926,47.925,47.926s47.922-27.91,47.922-47.926S263.344,343.465,233.648,343.465z"
		/>
	<path style="fill:#3A3847;" d="M137.797,263.59c-10.328,0-20.352-2.465-29.782-7.318c-18.729-9.727-33.65-28.455-40.959-51.373
		c-3.409-10.569-5.141-21.731-5.141-33.167c0-11.435,1.731-22.598,5.148-33.175c7.301-22.909,22.223-41.638,40.936-51.357
		c9.446-4.859,19.47-7.324,29.798-7.324c41.841,0,75.882,41.209,75.882,91.856C213.679,222.38,179.638,263.59,137.797,263.59z
		 M137.797,87.863c-9.049,0-17.84,2.161-26.131,6.428c-16.833,8.752-30.328,25.78-36.997,46.708
		c-3.167,9.798-4.766,20.133-4.766,30.733s1.599,20.937,4.758,30.726c6.677,20.937,20.171,37.965,37.021,46.725
		c8.276,4.259,17.067,6.42,26.116,6.42c37.434,0,67.894-37.622,67.894-83.87C205.691,125.484,175.231,87.863,137.797,87.863z"/>
	<path style="fill:#3A3847;" d="M137.797,247.614c-33.035,0-59.907-34.041-59.907-75.882s26.873-75.882,59.907-75.882
		s59.906,34.041,59.906,75.882S170.831,247.614,137.797,247.614z M137.797,103.838c-28.627,0-51.919,30.46-51.919,67.894
		s23.292,67.895,51.919,67.895s51.919-30.46,51.919-67.895C189.716,134.298,166.424,103.838,137.797,103.838z"/>
	<path style="fill:#3A3847;" d="M329.494,263.59c-41.841,0-75.878-41.21-75.878-91.858c0-50.647,34.037-91.856,75.878-91.856
		c31.67,0,59.439,23.042,70.742,58.697c3.408,10.562,5.14,21.724,5.14,33.159c0,11.436-1.731,22.598-5.147,33.175
		c-10.305,32.364-34.408,54.658-62.895,58.175C334.807,263.418,332.147,263.59,329.494,263.59z M329.494,87.863
		c-37.434,0-67.891,37.621-67.891,83.869c0,46.249,30.457,83.87,67.891,83.87c2.293,0,4.595-0.141,6.817-0.438
		c25.398-3.136,46.958-23.323,56.312-52.691c3.166-9.805,4.766-20.141,4.766-30.741s-1.6-20.936-4.758-30.726
		C382.389,108.713,357.615,87.863,329.494,87.863z"/>
	<path style="fill:#3A3847;" d="M329.494,247.614c-33.034,0-59.906-34.041-59.906-75.882S296.46,95.85,329.494,95.85
		c33.035,0,59.907,34.041,59.907,75.882S362.529,247.614,329.494,247.614z M329.494,103.838c-28.627,0-51.919,30.46-51.919,67.894
		s23.292,67.895,51.919,67.895s51.92-30.46,51.92-67.895C381.414,134.298,358.121,103.838,329.494,103.838z"/>
	<path style="fill:#3A3847;" d="M320.672,485.424c-0.998,0-1.825-0.203-2.449-0.453c-3.128-1.186-12.738-4.828,4.244-62.129
		c0.623-2.107,2.823-3.285,4.969-2.691c2.113,0.623,3.314,2.848,2.69,4.969c-9.423,31.777-10.476,48.275-8.907,52.129
		c6.536-2.861,25.654-33.439,45.366-84.891c19.665-51.279,25.921-86.748,23.065-93.457c-1.872,1.062-8.197,6.125-20.687,29.588
		c-1.037,1.957-3.455,2.691-5.405,1.646c-1.942-1.039-2.684-3.457-1.646-5.406c20.102-37.738,27.505-34.844,30.68-33.635
		c18.097,7.012-14.743,94.205-18.55,104.119c-14.953,39.049-36.958,83.682-49.93,89.43
		C322.817,485.221,321.663,485.424,320.672,485.424z"/>
	<path style="fill:#3A3847;" d="M387.482,511.172c-0.733,0-1.443-0.125-2.13-0.381l-67.122-25.812
		c-2.059-0.795-3.081-3.104-2.293-5.164c0.787-2.051,3.089-3.08,5.164-2.293l67.098,25.803c5.336-1.107,25.094-32.027,45.477-85.25
		c20.484-53.182,26.451-89.336,22.738-93.994l-66.693-25.529c-2.059-0.797-3.081-3.105-2.293-5.164
		c0.795-2.053,3.081-3.066,5.164-2.293l67.099,25.795c1.232,0.469,2.987,1.576,4.157,4.182c5.827,12.979-7.691,60.865-22.715,99.867
		C437.482,430.479,406.024,511.172,387.482,511.172z"/>
	<path style="fill:#3A3847;" d="M368.316,358.481c-0.476,0-0.951-0.086-1.428-0.266l-17.972-6.871
		c-2.06-0.789-3.089-3.098-2.301-5.156c0.788-2.061,3.104-3.09,5.156-2.301l17.972,6.871c2.06,0.779,3.089,3.09,2.301,5.156
		C371.437,357.506,369.924,358.481,368.316,358.481z"/>
	<path style="fill:#3A3847;" d="M342.514,425.656c-0.477,0-0.968-0.086-1.436-0.264l-27.824-10.734
		c-1.576-0.537-2.73-2.027-2.73-3.775c0-2.699,2.941-4.664,5.469-3.729l27.956,10.781c2.06,0.795,3.081,3.104,2.294,5.162
		C345.625,424.682,344.112,425.656,342.514,425.656z"/>
	<path style="fill:#3A3847;" d="M105.847,355.049c-0.468,0-0.944-0.086-1.412-0.258c-2.06-0.779-3.104-3.082-2.324-5.148
		c15.99-42.332,2.73-86.225,2.16-88.066c-0.655-2.113,0.523-4.344,2.637-5c2.106-0.679,4.345,0.531,4.992,2.636
		c1.521,4.898,14.345,49.143-2.316,93.254C108.982,354.065,107.461,355.049,105.847,355.049z"/>
	<path style="fill:#3A3847;" d="M99.06,358.481c-1.599,0-3.112-0.967-3.729-2.559c-0.788-2.051,0.234-4.369,2.293-5.164
		l17.894-6.871c2.052-0.789,4.369,0.24,5.156,2.301c0.788,2.059-0.242,4.367-2.301,5.156l-17.879,6.871
		C100.027,358.395,99.536,358.481,99.06,358.481z"/>
	<path style="fill:#3A3847;" d="M124.778,425.656c-1.607,0-3.12-0.975-3.729-2.559c-0.788-2.059,0.234-4.367,2.293-5.162
		l27.637-10.625c2.083-0.795,4.376,0.242,5.164,2.293c0.788,2.061-0.234,4.369-2.293,5.164l-27.637,10.625
		C125.737,425.57,125.254,425.656,124.778,425.656z"/>
	<path style="fill:#3A3847;" d="M342.514,425.656c-0.477,0-0.96-0.086-1.436-0.264c-2.06-0.789-3.081-3.105-2.293-5.164
		l25.803-67.178c0.788-2.051,3.081-3.072,5.164-2.293c2.06,0.787,3.081,3.105,2.293,5.164l-25.803,67.176
		C345.633,424.682,344.12,425.656,342.514,425.656z"/>
	<path style="fill:#3A3847;" d="M124.778,425.656c-1.607,0-3.12-0.975-3.729-2.566l-25.718-67.176
		c-0.788-2.059,0.242-4.369,2.301-5.156c2.051-0.779,4.368,0.242,5.156,2.301l25.718,67.178c0.788,2.059-0.242,4.367-2.302,5.156
		C125.737,425.57,125.254,425.656,124.778,425.656z"/>
	<path style="fill:#3A3847;" d="M233.648,375.414c-2.207,0-3.993-1.785-3.993-3.992v-15.977c0-2.207,1.786-3.992,3.993-3.992
		c2.208,0,3.994,1.785,3.994,3.992v15.977C237.642,373.629,235.856,375.414,233.648,375.414z"/>
	<path style="fill:#3A3847;" d="M233.648,431.328c-2.207,0-3.993-1.787-3.993-3.994v-15.975c0-2.207,1.786-3.994,3.993-3.994
		c2.208,0,3.994,1.787,3.994,3.994v15.975C237.642,429.541,235.856,431.328,233.648,431.328z"/>
	<path style="fill:#3A3847;" d="M219.514,381.25c-1.022,0-2.044-0.391-2.824-1.17l-11.264-11.264c-1.56-1.561-1.56-4.088,0-5.648
		s4.087-1.561,5.647,0l11.264,11.264c1.561,1.561,1.561,4.088,0,5.648C221.557,380.859,220.535,381.25,219.514,381.25z"/>
	<path style="fill:#3A3847;" d="M259.045,420.781c-1.021,0-2.043-0.389-2.823-1.17l-11.264-11.264c-1.56-1.561-1.56-4.088,0-5.646
		c1.561-1.561,4.088-1.561,5.647,0l11.264,11.264c1.561,1.559,1.561,4.086,0,5.646C261.089,420.393,260.067,420.781,259.045,420.781
		z"/>
	<path style="fill:#3A3847;" d="M213.679,395.385h-15.976c-2.207,0-3.993-1.787-3.993-3.994c0-2.209,1.786-3.994,3.993-3.994h15.976
		c2.207,0,3.994,1.785,3.994,3.994C217.673,393.598,215.886,395.385,213.679,395.385z"/>
	<path style="fill:#3A3847;" d="M269.588,395.385h-15.972c-2.207,0-3.993-1.787-3.993-3.994c0-2.209,1.786-3.994,3.993-3.994h15.972
		c2.207,0,3.993,1.785,3.993,3.994C273.581,393.598,271.795,395.385,269.588,395.385z"/>
	<path style="fill:#3A3847;" d="M208.25,420.781c-1.022,0-2.043-0.389-2.824-1.17c-1.56-1.561-1.56-4.088,0-5.646l11.264-11.264
		c1.561-1.561,4.088-1.561,5.647,0c1.561,1.559,1.561,4.086,0,5.646l-11.264,11.264C210.293,420.393,209.272,420.781,208.25,420.781
		z"/>
	<path style="fill:#3A3847;" d="M247.782,381.25c-1.022,0-2.044-0.391-2.824-1.17c-1.56-1.561-1.56-4.088,0-5.648l11.264-11.264
		c1.56-1.561,4.087-1.561,5.647,0s1.561,4.088,0,5.648l-11.264,11.264C249.825,380.859,248.804,381.25,247.782,381.25z"/>
	<path style="fill:#3A3847;" d="M233.648,231.639c-2.207,0-3.993-1.787-3.993-3.994V123.807c0-2.208,1.786-3.994,3.993-3.994
		c2.208,0,3.994,1.786,3.994,3.994v103.838C237.642,229.853,235.856,231.639,233.648,231.639z"/>
	<path style="fill:#3A3847;" d="M149.778,395.385c-2.208,0-3.994-1.787-3.994-3.994v-15.977c0-2.207,1.786-3.992,3.994-3.992
		c2.207,0,3.994,1.785,3.994,3.992v15.977C153.772,393.598,151.985,395.385,149.778,395.385z"/>
	<path style="fill:#3A3847;" d="M317.513,395.385c-2.207,0-3.993-1.787-3.993-3.994v-15.977c0-2.207,1.786-3.992,3.993-3.992
		c2.208,0,3.994,1.785,3.994,3.992v15.977C321.507,393.598,319.721,395.385,317.513,395.385z"/>
	<path style="fill:#3A3847;" d="M417.357,143.776h-20.85c-2.208,0-3.994-1.786-3.994-3.994c0-2.207,1.786-3.994,3.994-3.994h20.85
		c2.207,0,3.994,1.787,3.994,3.994C421.352,141.99,419.565,143.776,417.357,143.776z"/>
	<path style="fill:#3A3847;" d="M417.357,207.676c-2.207,0-3.994-1.786-3.994-3.994v-63.9c0-2.207,1.787-3.994,3.994-3.994
		s3.994,1.787,3.994,3.994v63.9C421.352,205.89,419.565,207.676,417.357,207.676z"/>
	<path style="fill:#3A3847;" d="M417.357,207.676h-20.85c-2.208,0-3.994-1.786-3.994-3.994c0-2.207,1.786-3.993,3.994-3.993h20.85
		c2.207,0,3.994,1.786,3.994,3.993C421.352,205.89,419.565,207.676,417.357,207.676z"/>
	<path style="fill:#3A3847;" d="M201.697,34.828c-2.208,0-3.994-1.787-3.994-3.994V3.994c0-2.208,1.787-3.994,3.994-3.994
		s3.994,1.786,3.994,3.994v26.841C205.691,33.042,203.905,34.828,201.697,34.828z"/>
	<path style="fill:#3A3847;" d="M265.594,7.987h-63.896c-2.208,0-3.994-1.786-3.994-3.993c0-2.208,1.787-3.994,3.994-3.994h63.896
		c2.207,0,3.994,1.786,3.994,3.994C269.588,6.201,267.801,7.987,265.594,7.987z"/>
	<path style="fill:#3A3847;" d="M265.594,34.828c-2.203,0-3.99-1.787-3.99-3.994V3.994c0-2.208,1.787-3.994,3.99-3.994
		c2.207,0,3.994,1.786,3.994,3.994v26.841C269.588,33.042,267.801,34.828,265.594,34.828z"/>
	<path style="fill:#3A3847;" d="M70.784,143.776h-20.85c-2.208,0-3.994-1.786-3.994-3.994c0-2.207,1.787-3.994,3.994-3.994h20.851
		c2.207,0,3.993,1.787,3.993,3.994C74.777,141.99,72.991,143.776,70.784,143.776z"/>
	<path style="fill:#3A3847;" d="M49.934,207.676c-2.208,0-3.994-1.786-3.994-3.994v-63.9c0-2.207,1.787-3.994,3.994-3.994
		s3.994,1.787,3.994,3.994v63.9C53.927,205.89,52.141,207.676,49.934,207.676z"/>
	<path style="fill:#3A3847;" d="M70.784,207.676h-20.85c-2.208,0-3.994-1.786-3.994-3.994c0-2.207,1.787-3.993,3.994-3.993h20.851
		c2.207,0,3.993,1.786,3.993,3.993C74.777,205.89,72.991,207.676,70.784,207.676z"/>
</g>
<g>
</g>
<g>
</g>
<g>
</g>
<g>
</g>
<g>
</g>
<g>
</g>
<g>
</g>
<g>
</g>
<g>
</g>
<g>
</g>
<g>
</g>
<g>
</g>
<g>
</g>
<g>
</g>
<g>
</g>
</svg>
